# xmcd
#
# Track frame offsets:
#	150
#	16761
#	33819
#	45251
#	60181
#	73728
#	82711
#	96556
#	108869
#	119567
#	131619
#	140149
#
# Disc length: 2045 seconds
#
# Revision: 1
# Processed by: cddbd v1.5.2PL0 Copyright (c) Steve Scherf et al.
# Submitted via: audiograbber 1.83.01
#
DISCID=9507fb0c
DTITLE=New Girls' Nite Out - Movin' On
DYEAR=2004
DGENRE=Bluegrass
TTITLE0=Muleskinner Blues
TTITLE1=The Far Side Bank of Jordan
TTITLE2=Rawhide
TTITLE3=I'll Be All Smiles Tonight
TTITLE4=Milk Cow Blues
TTITLE5=I Dreamed I Went to Heaven
TTITLE6=I Am Weary Let Me Rest
TTITLE7=Back Up and Push
TTITLE8=The Crawdad Song
TTITLE9=Cattle Call
TTITLE10=Black Mtn Rag
TTITLE11=Down to the River to Pray
EXTD=
EXTT0=
EXTT1=
EXTT2=
EXTT3=
EXTT4=
EXTT5=
EXTT6=
EXTT7=
EXTT8=
EXTT9=
EXTT10=
EXTT11=
PLAYORDER=
